<svg xmlns="http://www.w3.org/2000/svg" version="1.1" xmlns:xlink="http://www.w3.org/1999/xlink" xmlns:svgjs="http://svgjs.dev/svgjs" viewBox="0 0 14.726351928777602 5.050320434636976"><g transform="matrix(1,0,0,1,4.752360895139571,1.6540764726451929)"><rect width="14.726351928777602" height="14.726351928777602" x="-4.752360895139571" y="-6.492092219715506" fill="#ffffff"></rect><g><path d=" M 0.063 0.8999999999999999 L 0.063 0.013499999999999845 L 0.3735 0.013499999999999845 Q 0.4365 0.013499999999999845 0.47775 0.03149999999999986 Q 0.519 0.04949999999999988 0.53925 0.08624999999999994 Q 0.5595 0.12299999999999989 0.5595 0.17849999999999988 L 0.5595 0.7094999999999999 Q 0.5595 0.7829999999999999 0.534 0.825 Q 0.5085000000000001 0.8669999999999999 0.46125 0.8835 Q 0.41400000000000003 0.8999999999999999 0.34950000000000003 0.8999999999999999 L 0.063 0.8999999999999999 M 0.2445 0.8099999999999999 L 0.321 0.8099999999999999 Q 0.35100000000000003 0.8099999999999999 0.36825 0.7919999999999999 Q 0.3855 0.7739999999999999 0.3855 0.7244999999999999 L 0.3855 0.19799999999999984 Q 0.3855 0.14849999999999985 0.36825 0.13049999999999995 Q 0.35100000000000003 0.11249999999999993 0.321 0.11249999999999993 L 0.2445 0.11249999999999993 L 0.2445 0.8099999999999999 M 0.624030029296875 0.8999999999999999 L 0.783030029296875 0.013499999999999845 L 1.032030029296875 0.013499999999999845 L 1.188030029296875 0.8999999999999999 L 0.993030029296875 0.8999999999999999 L 0.966030029296875 0.7364999999999999 L 0.837030029296875 0.7364999999999999 L 0.811530029296875 0.8999999999999999 L 0.624030029296875 0.8999999999999999 M 0.840030029296875 0.6495 L 0.964530029296875 0.6495 L 0.9030300292968749 0.16799999999999993 L 0.840030029296875 0.6495 M 1.6140732421875001 0.8999999999999999 L 1.4445732421875 0.4394999999999999 L 1.6110732421875 0.013499999999999845 L 1.7970732421875 0.013499999999999845 L 1.6155732421875 0.4394999999999999 L 1.8030732421875 0.8999999999999999 L 1.6140732421875001 0.8999999999999999 M 1.2630732421875 0.8999999999999999 L 1.2630732421875 0.013499999999999845 L 1.4370732421875 0.013499999999999845 L 1.4370732421875 0.8999999999999999 L 1.2630732421875 0.8999999999999999 M 1.827032958984375 0.8999999999999999 L 1.986032958984375 0.013499999999999845 L 2.235032958984375 0.013499999999999845 L 2.391032958984375 0.8999999999999999 L 2.1960329589843752 0.8999999999999999 L 2.169032958984375 0.7364999999999999 L 2.040032958984375 0.7364999999999999 L 2.014532958984375 0.8999999999999999 L 1.827032958984375 0.8999999999999999 M 2.043032958984375 0.6495 L 2.167532958984375 0.6495 L 2.106032958984375 0.16799999999999993 L 2.043032958984375 0.6495 M 2.466076171875 0.8999999999999999 L 2.466076171875 0.013499999999999845 L 2.790076171875 0.013499999999999845 Q 2.8785761718750003 0.013499999999999845 2.923576171875 0.05324999999999991 Q 2.968576171875 0.09299999999999986 2.968576171875 0.16349999999999987 L 2.968576171875 0.3014999999999999 Q 2.968576171875 0.3719999999999999 2.931076171875 0.41999999999999993 Q 2.893576171875 0.4679999999999999 2.814076171875 0.4754999999999999 L 2.814076171875 0.4754999999999999 Q 2.865076171875 0.48299999999999993 2.886826171875 0.50925 Q 2.908576171875 0.5354999999999999 2.9250761718750002 0.5939999999999999 L 3.009076171875 0.8999999999999999 L 2.815576171875 0.8999999999999999 L 2.751076171875 0.6059999999999999 Q 2.742076171875 0.5699999999999998 2.730826171875 0.5452499999999999 Q 2.719576171875 0.5205 2.698576171875 0.5205 L 2.647576171875 0.5205 L 2.647576171875 0.8999999999999999 L 2.466076171875 0.8999999999999999 M 2.647576171875 0.3989999999999999 L 2.719576171875 0.3989999999999999 Q 2.761576171875 0.3989999999999999 2.779576171875 0.3757499999999999 Q 2.797576171875 0.3524999999999999 2.797576171875 0.3014999999999999 L 2.797576171875 0.19499999999999995 Q 2.797576171875 0.1469999999999999 2.781076171875 0.12749999999999995 Q 2.764576171875 0.10799999999999987 2.730076171875 0.10799999999999987 L 2.647576171875 0.10799999999999987 L 2.647576171875 0.3989999999999999 M 3.345073974609375 0.8999999999999999 L 3.345073974609375 0.013499999999999845 L 3.660073974609375 0.013499999999999845 Q 3.744073974609375 0.013499999999999845 3.788323974609375 0.05324999999999991 Q 3.832573974609375 0.09299999999999986 3.832573974609375 0.16349999999999987 L 3.832573974609375 0.2639999999999999 Q 3.832573974609375 0.30299999999999994 3.821323974609375 0.33524999999999994 Q 3.810073974609375 0.36749999999999994 3.787573974609375 0.3899999999999999 Q 3.771073974609375 0.4064999999999999 3.745573974609375 0.4154999999999999 Q 3.720073974609375 0.4244999999999999 3.696073974609375 0.4259999999999999 L 3.696073974609375 0.4274999999999999 Q 3.721573974609375 0.4274999999999999 3.745573974609375 0.4334999999999999 Q 3.769573974609375 0.4394999999999999 3.790573974609375 0.4574999999999999 Q 3.816073974609375 0.4769999999999999 3.831073974609375 0.5107499999999999 Q 3.846073974609375 0.5445 3.846073974609375 0.5939999999999999 L 3.846073974609375 0.7154999999999999 Q 3.846073974609375 0.7874999999999999 3.821323974609375 0.8279999999999998 Q 3.796573974609375 0.8684999999999999 3.750823974609375 0.8842499999999999 Q 3.705073974609375 0.8999999999999999 3.642073974609375 0.8999999999999999 L 3.345073974609375 0.8999999999999999 M 3.520573974609375 0.8084999999999999 L 3.601573974609375 0.8084999999999999 Q 3.624073974609375 0.8084999999999999 3.638323974609375 0.8002499999999999 Q 3.652573974609375 0.7919999999999999 3.660823974609375 0.7694999999999999 Q 3.669073974609375 0.7469999999999999 3.669073974609375 0.7034999999999999 L 3.669073974609375 0.5984999999999999 Q 3.669073974609375 0.5385 3.648823974609375 0.5197499999999999 Q 3.628573974609375 0.5009999999999999 3.595573974609375 0.5009999999999999 L 3.520573974609375 0.5009999999999999 L 3.520573974609375 0.8084999999999999 M 3.520573974609375 0.39149999999999985 L 3.591073974609375 0.39149999999999985 Q 3.625573974609375 0.39149999999999985 3.645823974609375 0.36749999999999994 Q 3.666073974609375 0.3434999999999999 3.666073974609375 0.28349999999999986 L 3.666073974609375 0.19499999999999995 Q 3.666073974609375 0.14849999999999985 3.648823974609375 0.12824999999999986 Q 3.631573974609375 0.10799999999999987 3.604573974609375 0.10799999999999987 L 3.520573974609375 0.10799999999999987 L 3.520573974609375 0.39149999999999985 M 3.954082763671875 0.8999999999999999 L 3.954082763671875 0.013499999999999845 L 4.128082763671875 0.013499999999999845 L 4.128082763671875 0.8999999999999999 L 3.954082763671875 0.8999999999999999 M 4.48960107421875 0.9179999999999999 Q 4.41610107421875 0.9179999999999999 4.36060107421875 0.9007499999999999 Q 4.30510107421875 0.8835 4.27435107421875 0.8287499999999999 Q 4.24360107421875 0.7739999999999999 4.24360107421875 0.6659999999999999 L 4.24360107421875 0.20099999999999985 Q 4.24360107421875 0.12149999999999994 4.27435107421875 0.07799999999999985 Q 4.30510107421875 0.034499999999999864 4.36135107421875 0.017249999999999877 Q 4.41760107421875 -1.1102230246251565e-16 4.49110107421875 -1.1102230246251565e-16 Q 4.56310107421875 -1.1102230246251565e-16 4.61935107421875 0.017999999999999905 Q 4.67560107421875 0.03599999999999992 4.70785107421875 0.0794999999999999 Q 4.74010107421875 0.12299999999999989 4.74010107421875 0.20099999999999985 L 4.74010107421875 0.6644999999999999 Q 4.74010107421875 0.7739999999999999 4.70785107421875 0.8287499999999999 Q 4.67560107421875 0.8835 4.61935107421875 0.9007499999999999 Q 4.56310107421875 0.9179999999999999 4.48960107421875 0.9179999999999999 M 4.48960107421875 0.816 Q 4.51210107421875 0.816 4.52935107421875 0.8084999999999999 Q 4.54660107421875 0.8009999999999999 4.55635107421875 0.7822499999999999 Q 4.56610107421875 0.7634999999999998 4.56610107421875 0.7304999999999999 L 4.56610107421875 0.1934999999999999 Q 4.56610107421875 0.16049999999999986 4.55635107421875 0.14174999999999993 Q 4.54660107421875 0.12299999999999989 4.52935107421875 0.11549999999999994 Q 4.51210107421875 0.10799999999999987 4.48960107421875 0.10799999999999987 Q 4.46710107421875 0.10799999999999987 4.45060107421875 0.11549999999999994 Q 4.43410107421875 0.12299999999999989 4.42435107421875 0.14174999999999993 Q 4.41460107421875 0.16049999999999986 4.41460107421875 0.1934999999999999 L 4.41460107421875 0.7304999999999999 Q 4.41460107421875 0.7634999999999998 4.42435107421875 0.7822499999999999 Q 4.43410107421875 0.8009999999999999 4.45060107421875 0.8084999999999999 Q 4.46710107421875 0.816 4.48960107421875 0.816 M 4.8556025390625 0.8999999999999999 L 4.8556025390625 0.013499999999999845 L 5.1661025390625 0.013499999999999845 Q 5.2291025390625 0.013499999999999845 5.2703525390625 0.03149999999999986 Q 5.3116025390625 0.04949999999999988 5.3318525390625 0.08624999999999994 Q 5.3521025390625 0.12299999999999989 5.3521025390625 0.17849999999999988 L 5.3521025390625 0.7094999999999999 Q 5.3521025390625 0.7829999999999999 5.3266025390625 0.825 Q 5.3011025390625 0.8669999999999999 5.2538525390625 0.8835 Q 5.2066025390625 0.8999999999999999 5.1421025390625 0.8999999999999999 L 4.8556025390625 0.8999999999999999 M 5.0371025390625 0.8099999999999999 L 5.1136025390625 0.8099999999999999 Q 5.1436025390625 0.8099999999999999 5.1608525390625 0.7919999999999999 Q 5.1781025390625 0.7739999999999999 5.1781025390625 0.7244999999999999 L 5.1781025390625 0.19799999999999984 Q 5.1781025390625 0.14849999999999985 5.1608525390625 0.13049999999999995 Q 5.1436025390625 0.11249999999999993 5.1136025390625 0.11249999999999993 L 5.0371025390625 0.11249999999999993 L 5.0371025390625 0.8099999999999999 M 5.467632568359375 0.8999999999999999 L 5.467632568359375 0.013499999999999845 L 5.641632568359375 0.013499999999999845 L 5.641632568359375 0.8999999999999999 L 5.467632568359375 0.8999999999999999 M 5.86965087890625 0.8999999999999999 L 5.72415087890625 0.013499999999999845 L 5.9041508789062505 0.013499999999999845 L 5.99415087890625 0.7154999999999999 L 5.99415087890625 0.7154999999999999 L 6.08715087890625 0.013499999999999845 L 6.26115087890625 0.013499999999999845 L 6.11415087890625 0.8999999999999999 L 5.86965087890625 0.8999999999999999 M 6.343609130859375 0.8999999999999999 L 6.343609130859375 0.013499999999999845 L 6.751609130859375 0.013499999999999845 L 6.751609130859375 0.13649999999999984 L 6.525109130859375 0.13649999999999984 L 6.525109130859375 0.37349999999999994 L 6.717109130859375 0.37349999999999994 L 6.717109130859375 0.5099999999999999 L 6.525109130859375 0.5099999999999999 L 6.525109130859375 0.7799999999999999 L 6.751609130859375 0.7799999999999999 L 6.751609130859375 0.8999999999999999 L 6.343609130859375 0.8999999999999999 M 6.844585693359375 0.8999999999999999 L 6.844585693359375 0.013499999999999845 L 7.1685856933593755 0.013499999999999845 Q 7.257085693359375 0.013499999999999845 7.302085693359375 0.05324999999999991 Q 7.347085693359375 0.09299999999999986 7.347085693359375 0.16349999999999987 L 7.347085693359375 0.3014999999999999 Q 7.347085693359375 0.3719999999999999 7.3095856933593755 0.41999999999999993 Q 7.272085693359375 0.4679999999999999 7.192585693359375 0.4754999999999999 L 7.192585693359375 0.4754999999999999 Q 7.243585693359375 0.48299999999999993 7.265335693359375 0.50925 Q 7.287085693359375 0.5354999999999999 7.303585693359375 0.5939999999999999 L 7.387585693359375 0.8999999999999999 L 7.194085693359375 0.8999999999999999 L 7.129585693359375 0.6059999999999999 Q 7.120585693359375 0.5699999999999998 7.109335693359375 0.5452499999999999 Q 7.098085693359375 0.5205 7.077085693359375 0.5205 L 7.026085693359375 0.5205 L 7.026085693359375 0.8999999999999999 L 6.844585693359375 0.8999999999999999 M 7.026085693359375 0.3989999999999999 L 7.098085693359375 0.3989999999999999 Q 7.140085693359375 0.3989999999999999 7.158085693359375 0.3757499999999999 Q 7.176085693359375 0.3524999999999999 7.176085693359375 0.3014999999999999 L 7.176085693359375 0.19499999999999995 Q 7.176085693359375 0.1469999999999999 7.159585693359375 0.12749999999999995 Q 7.143085693359375 0.10799999999999987 7.108585693359375 0.10799999999999987 L 7.026085693359375 0.10799999999999987 L 7.026085693359375 0.3989999999999999 M 7.69956005859375 0.9104999999999999 Q 7.62006005859375 0.9104999999999999 7.56381005859375 0.8879999999999999 Q 7.50756005859375 0.8654999999999999 7.47756005859375 0.8084999999999999 Q 7.44756005859375 0.7515 7.44756005859375 0.6479999999999999 L 7.44756005859375 0.5954999999999999 Q 7.49406005859375 0.5954999999999999 7.53906005859375 0.5954999999999999 Q 7.58406005859375 0.5954999999999999 7.62906005859375 0.5954999999999999 L 7.62906005859375 0.6629999999999999 Q 7.62906005859375 0.7184999999999999 7.63806005859375 0.7477499999999999 Q 7.64706005859375 0.7769999999999999 7.66356005859375 0.7882499999999999 Q 7.68006005859375 0.7994999999999999 7.70256005859375 0.7994999999999999 Q 7.73706005859375 0.7994999999999999 7.75731005859375 0.7747499999999999 Q 7.77756005859375 0.7499999999999999 7.77756005859375 0.6779999999999999 Q 7.77756005859375 0.6224999999999998 7.76031005859375 0.5947499999999999 Q 7.74306005859375 0.567 7.70556005859375 0.54975 Q 7.66806005859375 0.5325 7.60956005859375 0.5069999999999999 Q 7.55706005859375 0.4844999999999999 7.52256005859375 0.4529999999999999 Q 7.48806005859375 0.4214999999999999 7.47156005859375 0.37349999999999994 Q 7.45506005859375 0.3254999999999999 7.45506005859375 0.25649999999999995 Q 7.45506005859375 0.16949999999999987 7.47831005859375 0.11549999999999994 Q 7.50156005859375 0.06149999999999989 7.55631005859375 0.03674999999999984 Q 7.6110600585937505 0.0119999999999999 7.70406005859375 0.0119999999999999 Q 7.82406005859375 0.0119999999999999 7.88781005859375 0.06374999999999986 Q 7.95156005859375 0.11549999999999994 7.95156005859375 0.21899999999999986 L 7.95156005859375 0.3254999999999999 Q 7.90806005859375 0.3254999999999999 7.86531005859375 0.3254999999999999 Q 7.82256005859375 0.3254999999999999 7.77756005859375 0.3254999999999999 L 7.77756005859375 0.27149999999999985 Q 7.77756005859375 0.20399999999999985 7.76181005859375 0.17699999999999994 Q 7.74606005859375 0.1499999999999999 7.70556005859375 0.1499999999999999 Q 7.66656005859375 0.1499999999999999 7.65006005859375 0.17399999999999993 Q 7.63356005859375 0.19799999999999984 7.63356005859375 0.2519999999999999 Q 7.63356005859375 0.3014999999999999 7.65381005859375 0.32924999999999993 Q 7.67406005859375 0.3569999999999999 7.70556005859375 0.37124999999999986 Q 7.73706005859375 0.38549999999999995 7.77306005859375 0.3989999999999999 Q 7.83906005859375 0.4244999999999999 7.88106005859375 0.45074999999999993 Q 7.92306005859375 0.4769999999999999 7.94256005859375 0.5227499999999998 Q 7.9620600585937495 0.5684999999999999 7.9620600585937495 0.6539999999999999 Q 7.9620600585937495 0.7499999999999999 7.92981005859375 0.8062499999999999 Q 7.89756005859375 0.8624999999999999 7.83831005859375 0.8865 Q 7.77906005859375 0.9104999999999999 7.69956005859375 0.9104999999999999 M 8.061046875 0.8999999999999999 L 8.061046875 0.013499999999999845 L 8.235046875 0.013499999999999845 L 8.235046875 0.8999999999999999 L 8.061046875 0.8999999999999999 M 8.449565185546875 0.8999999999999999 L 8.449565185546875 0.13649999999999984 L 8.311565185546876 0.13649999999999984 L 8.311565185546876 0.013499999999999845 L 8.761565185546875 0.013499999999999845 L 8.761565185546875 0.13649999999999984 L 8.623565185546875 0.13649999999999984 L 8.623565185546875 0.8999999999999999 L 8.449565185546875 0.8999999999999999 M 8.838054931640626 0.8999999999999999 L 8.838054931640626 0.013499999999999845 L 9.246054931640625 0.013499999999999845 L 9.246054931640625 0.13649999999999984 L 9.019554931640625 0.13649999999999984 L 9.019554931640625 0.37349999999999994 L 9.211554931640626 0.37349999999999994 L 9.211554931640626 0.5099999999999999 L 9.019554931640625 0.5099999999999999 L 9.019554931640625 0.7799999999999999 L 9.246054931640625 0.7799999999999999 L 9.246054931640625 0.8999999999999999 L 8.838054931640626 0.8999999999999999" fill="#404040" fill-rule="nonzero"></path></g><g><path d=" M 0.3232643821022727 1.6249799893465906 Q 0.3232643821022727 1.649283078835227 0.3141091086647727 1.6705898970170452 Q 0.3049538352272727 1.6918967151988633 0.28897372159090906 1.707876828835227 Q 0.2729936079545454 1.7238569424715906 0.2515203302556818 1.7330122159090906 Q 0.23004705255681818 1.7421674893465906 0.2057439630681818 1.7421674893465906 L 0.05459872159090909 1.7421674893465906 L 0.05459872159090909 1.264761594460227 L 0.2057439630681818 1.264761594460227 Q 0.23004705255681818 1.264761594460227 0.2515203302556818 1.273916867897727 Q 0.2729936079545454 1.283072141335227 0.28897372159090906 1.2990522549715906 Q 0.3049538352272727 1.3150323686079544 0.3141091086647727 1.336505646306818 Q 0.3232643821022727 1.3579789240056814 0.3232643821022727 1.382282013494318 L 0.3232643821022727 1.3869428799715906 Q 0.3232643821022727 1.403921750710227 0.3187699751420454 1.4194024857954544 Q 0.3142755681818182 1.4348832208806814 0.3059525923295454 1.448199982244318 Q 0.2976296164772727 1.4615167436079544 0.2863103693181818 1.4723366122159087 Q 0.2749911221590909 1.4831564808238633 0.2610085227272727 1.4904806995738633 Q 0.2749911221590909 1.4978049183238633 0.2863103693181818 1.508624786931818 Q 0.2976296164772727 1.5194446555397725 0.3059525923295454 1.5329278764204544 Q 0.3142755681818182 1.546411097301136 0.3187699751420454 1.5618918323863633 Q 0.3232643821022727 1.5773725674715906 0.3232643821022727 1.594351438210227 L 0.3232643821022727 1.6249799893465906 L 0.3232643821022727 1.6249799893465906 M 0.2803178267045454 1.587360138494318 Q 0.2803178267045454 1.5713800248579544 0.27432528409090906 1.5575638849431814 Q 0.2683327414772727 1.5437477450284087 0.25784579190340906 1.5334272549715906 Q 0.24735884232954544 1.5231067649147725 0.2335427024147727 1.517114222301136 Q 0.21972656249999997 1.5111216796874998 0.20374644886363635 1.5111216796874998 L 0.09754527698863635 1.5111216796874998 L 0.09754527698863635 1.7012184481534087 L 0.20374644886363635 1.7012184481534087 Q 0.21972656249999997 1.7012184481534087 0.2335427024147727 1.6952259055397725 Q 0.24735884232954544 1.689233362926136 0.25784579190340906 1.678912872869318 Q 0.2683327414772727 1.6685923828124998 0.27432528409090906 1.654776242897727 Q 0.2803178267045454 1.6409601029829544 0.2803178267045454 1.6249799893465906 L 0.2803178267045454 1.587360138494318 M 0.2803178267045454 1.382282013494318 Q 0.2803178267045454 1.3663018998579544 0.27432528409090906 1.3524857599431814 Q 0.2683327414772727 1.338669620028409 0.25784579190340906 1.3281826704545452 Q 0.24735884232954544 1.3176957208806814 0.2335427024147727 1.3117031782670452 Q 0.21972656249999997 1.305710635653409 0.20374644886363635 1.305710635653409 L 0.09754527698863635 1.305710635653409 L 0.09754527698863635 1.470172638494318 L 0.20374644886363635 1.470172638494318 Q 0.21972656249999997 1.470172638494318 0.2335427024147727 1.4641800958806814 Q 0.24735884232954544 1.4581875532670452 0.25784579190340906 1.4477006036931814 Q 0.2683327414772727 1.437213654119318 0.27432528409090906 1.4233975142045452 Q 0.2803178267045454 1.4095813742897725 0.2803178267045454 1.393601260653409 L 0.2803178267045454 1.382282013494318 M 0.6673362038352272 1.6316383700284087 Q 0.6673362038352272 1.6559414595170452 0.6581809303977272 1.6772482776988633 Q 0.6490256569602272 1.6985550958806814 0.6330455433238635 1.7145352095170452 Q 0.6170654296875 1.7305153231534087 0.5957586115056818 1.7396705965909087 Q 0.5744517933238635 1.7488258700284087 0.5501487038352272 1.7488258700284087 L 0.5161909623579545 1.7488258700284087 Q 0.4918878728693181 1.7488258700284087 0.4704145951704545 1.7396705965909087 Q 0.44894131747159083 1.7305153231534087 0.43296120383522724 1.7145352095170452 Q 0.4169810901988636 1.6985550958806814 0.4078258167613636 1.6772482776988633 Q 0.3986705433238636 1.6559414595170452 0.3986705433238636 1.6316383700284087 L 0.3986705433238636 1.264761594460227 L 0.44161709872159083 1.264761594460227 L 0.44161709872159083 1.6316383700284087 Q 0.44161709872159083 1.6476184836647725 0.44760964133522724 1.6614346235795452 Q 0.4536021839488636 1.675250763494318 0.46408913352272724 1.6857377130681814 Q 0.47457608309659083 1.6962246626420452 0.4883922230113636 1.7022172052556814 Q 0.5022083629261362 1.708209747869318 0.5181884765625 1.708209747869318 L 0.5481511896306818 1.708209747869318 Q 0.5641313032670454 1.708209747869318 0.5779474431818181 1.7022172052556814 Q 0.5917635830965908 1.6962246626420452 0.602084073153409 1.6857377130681814 Q 0.6124045632102272 1.675250763494318 0.6183971058238635 1.6614346235795452 Q 0.6243896484375 1.6476184836647725 0.6243896484375 1.6316383700284087 L 0.6243896484375 1.264761594460227 L 0.6673362038352272 1.264761594460227 L 0.6673362038352272 1.6316383700284087 L 0.6673362038352272 1.6316383700284087 M 0.7703746448863635 1.7421674893465906 L 0.7703746448863635 1.264761594460227 L 0.8133212002840908 1.264761594460227 L 0.8133212002840908 1.7421674893465906 L 0.7703746448863635 1.7421674893465906 M 0.9160267223011362 1.7421674893465906 L 0.9160267223011362 1.264761594460227 L 0.9589732776988635 1.264761594460227 L 0.9589732776988635 1.7012184481534087 L 1.1417458274147725 1.7012184481534087 L 1.1417458274147725 1.7421674893465906 L 0.9160267223011362 1.7421674893465906 M 1.479159268465909 1.6249799893465906 Q 1.479159268465909 1.649283078835227 1.470003995028409 1.6705898970170452 Q 1.460848721590909 1.6918967151988633 1.4448686079545454 1.707876828835227 Q 1.4288884943181817 1.7238569424715906 1.4074152166193181 1.7330122159090906 Q 1.3859419389204544 1.7421674893465906 1.3616388494318181 1.7421674893465906 L 1.2104936079545454 1.7421674893465906 L 1.2104936079545454 1.264761594460227 L 1.3616388494318181 1.264761594460227 Q 1.3859419389204544 1.264761594460227 1.4074152166193181 1.273916867897727 Q 1.4288884943181817 1.283072141335227 1.4448686079545454 1.2990522549715906 Q 1.460848721590909 1.3150323686079544 1.470003995028409 1.336505646306818 Q 1.479159268465909 1.3579789240056814 1.479159268465909 1.382282013494318 L 1.479159268465909 1.6249799893465906 L 1.479159268465909 1.6249799893465906 M 1.4362127130681817 1.382282013494318 Q 1.4362127130681817 1.3663018998579544 1.4302201704545454 1.3524857599431814 Q 1.424227627840909 1.338669620028409 1.4137406782670454 1.3281826704545452 Q 1.4032537286931817 1.3176957208806814 1.389437588778409 1.3117031782670452 Q 1.3756214488636362 1.305710635653409 1.3596413352272725 1.305710635653409 L 1.2534401633522725 1.305710635653409 L 1.2534401633522725 1.7012184481534087 L 1.3596413352272725 1.7012184481534087 Q 1.3756214488636362 1.7012184481534087 1.389437588778409 1.6952259055397725 Q 1.4032537286931817 1.689233362926136 1.4137406782670454 1.678912872869318 Q 1.424227627840909 1.6685923828124998 1.4302201704545454 1.654776242897727 Q 1.4362127130681817 1.6409601029829544 1.4362127130681817 1.6249799893465906 L 1.4362127130681817 1.382282013494318 M 2.0008433948863638 1.6316383700284087 Q 2.0008433948863638 1.6559414595170452 1.9910222833806819 1.6772482776988633 Q 1.981201171875 1.6985550958806814 1.9647216796875 1.7145352095170452 Q 1.9482421875 1.7305153231534087 1.9264359907670454 1.7396705965909087 Q 1.9046297940340908 1.7488258700284087 1.8803267045454546 1.7488258700284087 L 1.8460360440340908 1.7488258700284087 Q 1.8217329545454546 1.7488258700284087 1.7999267578125 1.7396705965909087 Q 1.7781205610795454 1.7305153231534087 1.7616410688920454 1.7145352095170452 Q 1.7451615767045454 1.6985550958806814 1.7353404651988635 1.6772482776988633 Q 1.7255193536931819 1.6559414595170452 1.7255193536931819 1.6316383700284087 L 1.7255193536931819 1.612661985085227 L 1.7684659090909092 1.605670685369318 L 1.7684659090909092 1.6316383700284087 Q 1.7684659090909092 1.6476184836647725 1.7749578302556819 1.6614346235795452 Q 1.7814497514204546 1.675250763494318 1.7924360795454546 1.6857377130681814 Q 1.8034224076704546 1.6962246626420452 1.8179043856534092 1.7022172052556814 Q 1.8323863636363635 1.708209747869318 1.8483664772727273 1.708209747869318 L 1.8783291903409092 1.708209747869318 Q 1.8943093039772727 1.708209747869318 1.9086248224431819 1.7022172052556814 Q 1.9229403409090908 1.6962246626420452 1.9339266690340908 1.6857377130681814 Q 1.9449129971590908 1.675250763494318 1.9514049183238635 1.6614346235795452 Q 1.9578968394886362 1.6476184836647725 1.9578968394886362 1.6316383700284087 L 1.9578968394886362 1.6173228515624998 Q 1.9578968394886362 1.5926868430397725 1.9482421875 1.576373810369318 Q 1.9385875355113635 1.5600607776988633 1.922607421875 1.548575071022727 Q 1.9066273082386362 1.5370893643465906 1.8864857066761362 1.5290993075284087 Q 1.8663441051136362 1.521109250710227 1.8450372869318181 1.5131191938920452 Q 1.82373046875 1.5051291370738633 1.8035888671875 1.495474485085227 Q 1.783447265625 1.4858198330965906 1.7674671519886362 1.471337855113636 Q 1.7514870383522727 1.4568558771306814 1.7418323863636365 1.4358819779829544 Q 1.732177734375 1.414908078835227 1.732177734375 1.3842795276988633 L 1.732177734375 1.375290713778409 Q 1.732177734375 1.3509876242897725 1.7413330078125 1.3296808061079544 Q 1.75048828125 1.308373987926136 1.7664683948863635 1.2923938742897725 Q 1.7824485085227273 1.276413760653409 1.8039217862215908 1.267258487215909 Q 1.8253950639204546 1.258103213778409 1.8496981534090908 1.258103213778409 L 1.8803267045454546 1.258103213778409 Q 1.9046297940340908 1.258103213778409 1.9259366122159092 1.267258487215909 Q 1.9472434303977273 1.276413760653409 1.9632235440340908 1.2923938742897725 Q 1.9792036576704546 1.308373987926136 1.9883589311079546 1.3296808061079544 Q 1.9975142045454546 1.3509876242897725 1.9975142045454546 1.375290713778409 L 1.9975142045454546 1.3876087180397725 L 1.9545676491477273 1.3946000177556814 L 1.9545676491477273 1.375290713778409 Q 1.9545676491477273 1.3593106001420452 1.9485751065340908 1.3454944602272725 Q 1.9425825639204546 1.3316783203124998 1.9322620738636362 1.3213578302556814 Q 1.9219415838068181 1.3110373401988633 1.9081254438920454 1.305044797585227 Q 1.8943093039772727 1.2990522549715906 1.8783291903409092 1.2990522549715906 L 1.8516956676136362 1.2990522549715906 Q 1.8357155539772727 1.2990522549715906 1.8218994140625 1.305044797585227 Q 1.8080832741477273 1.3110373401988633 1.7975963245738635 1.3213578302556814 Q 1.787109375 1.3316783203124998 1.7811168323863635 1.3454944602272725 Q 1.7751242897727273 1.3593106001420452 1.7751242897727273 1.375290713778409 L 1.7751242897727273 1.3842795276988633 Q 1.7751242897727273 1.407250941051136 1.7847789417613635 1.422898135653409 Q 1.79443359375 1.4385453302556814 1.8104137073863635 1.449698117897727 Q 1.8263938210227273 1.4608509055397725 1.8465354225852273 1.4690074218749998 Q 1.8666770241477273 1.477163938210227 1.8879838423295454 1.4856533735795452 Q 1.9092906605113635 1.4941428089488633 1.9294322620738635 1.504296839488636 Q 1.9495738636363635 1.5144508700284087 1.9655539772727273 1.5292657670454544 Q 1.9815340909090908 1.5440806640624998 1.9911887428977273 1.565387482244318 Q 2.0008433948863638 1.586694300426136 2.0008433948863638 1.6173228515624998 L 2.0008433948863638 1.6316383700284087 M 2.209417169744318 1.305710635653409 L 2.209417169744318 1.7421674893465906 L 2.166470614346591 1.7421674893465906 L 2.166470614346591 1.305710635653409 L 2.0526123046874996 1.305710635653409 L 2.0526123046874996 1.264761594460227 L 2.3232754794034087 1.264761594460227 L 2.3232754794034087 1.305710635653409 L 2.209417169744318 1.305710635653409 M 2.616410688920454 1.7421674893465906 L 2.486905184659091 1.5384210404829544 L 2.4279785156249996 1.5384210404829544 L 2.4279785156249996 1.7421674893465906 L 2.3850319602272725 1.7421674893465906 L 2.3850319602272725 1.264761594460227 L 2.5365101207386362 1.264761594460227 Q 2.5608132102272725 1.264761594460227 2.582120028409091 1.273916867897727 Q 2.6034268465909087 1.283072141335227 2.6194069602272725 1.2990522549715906 Q 2.6353870738636362 1.3150323686079544 2.6445423473011362 1.336505646306818 Q 2.6536976207386362 1.3579789240056814 2.6536976207386362 1.382282013494318 L 2.6536976207386362 1.4209006214488633 Q 2.6536976207386362 1.4452037109374998 2.6445423473011362 1.4666769886363633 Q 2.6353870738636362 1.488150266335227 2.6194069602272725 1.5041303799715906 Q 2.6034268465909087 1.5201104936079544 2.582120028409091 1.5292657670454544 Q 2.5608132102272725 1.5384210404829544 2.5365101207386362 1.5384210404829544 L 2.6660156249999996 1.7421674893465906 L 2.616410688920454 1.7421674893465906 M 2.6107510653409087 1.382282013494318 Q 2.6107510653409087 1.3663018998579544 2.6047585227272725 1.3524857599431814 Q 2.5987659801136362 1.338669620028409 2.588445490056818 1.3281826704545452 Q 2.5781249999999996 1.3176957208806814 2.564308860085227 1.3117031782670452 Q 2.550492720170454 1.305710635653409 2.534512606534091 1.305710635653409 L 2.4279785156249996 1.305710635653409 L 2.4279785156249996 1.4974719992897725 L 2.534512606534091 1.4974719992897725 Q 2.550492720170454 1.4974719992897725 2.564308860085227 1.491479456676136 Q 2.5781249999999996 1.4854869140624998 2.588445490056818 1.474999964488636 Q 2.5987659801136362 1.4645130149147725 2.6047585227272725 1.4506968749999998 Q 2.6107510653409087 1.436880735085227 2.6107510653409087 1.4209006214488633 L 2.6107510653409087 1.382282013494318 M 3.0100874467329546 1.6316383700284087 Q 3.0100874467329546 1.6559414595170452 3.0009321732954546 1.6772482776988633 Q 2.9917768998579546 1.6985550958806814 2.975796786221591 1.7145352095170452 Q 2.959816672585227 1.7305153231534087 2.938509854403409 1.7396705965909087 Q 2.917203036221591 1.7488258700284087 2.8928999467329546 1.7488258700284087 L 2.8589422052556817 1.7488258700284087 Q 2.8346391157670454 1.7488258700284087 2.8131658380681817 1.7396705965909087 Q 2.791692560369318 1.7305153231534087 2.7757124467329546 1.7145352095170452 Q 2.759732333096591 1.6985550958806814 2.750577059659091 1.6772482776988633 Q 2.741421786221591 1.6559414595170452 2.741421786221591 1.6316383700284087 L 2.741421786221591 1.375290713778409 Q 2.741421786221591 1.3509876242897725 2.750577059659091 1.3296808061079544 Q 2.759732333096591 1.308373987926136 2.7757124467329546 1.2923938742897725 Q 2.791692560369318 1.276413760653409 2.8131658380681817 1.267258487215909 Q 2.8346391157670454 1.258103213778409 2.8589422052556817 1.258103213778409 L 2.8928999467329546 1.258103213778409 Q 2.917203036221591 1.258103213778409 2.938509854403409 1.267258487215909 Q 2.959816672585227 1.276413760653409 2.975796786221591 1.2923938742897725 Q 2.9917768998579546 1.308373987926136 3.0009321732954546 1.3296808061079544 Q 3.0100874467329546 1.3509876242897725 3.0100874467329546 1.375290713778409 L 3.0100874467329546 1.6316383700284087 L 3.0100874467329546 1.6316383700284087 M 2.967140891335227 1.375290713778409 Q 2.967140891335227 1.3593106001420452 2.961148348721591 1.3454944602272725 Q 2.9551558061079546 1.3316783203124998 2.9448353160511362 1.3213578302556814 Q 2.934514825994318 1.3110373401988633 2.9206986860795454 1.305044797585227 Q 2.9068825461647725 1.2990522549715906 2.890902432528409 1.2990522549715906 L 2.860939719460227 1.2990522549715906 Q 2.8449596058238633 1.2990522549715906 2.831143465909091 1.305044797585227 Q 2.817327325994318 1.3110373401988633 2.8068403764204546 1.3213578302556814 Q 2.796353426846591 1.3316783203124998 2.7903608842329546 1.3454944602272725 Q 2.784368341619318 1.3593106001420452 2.784368341619318 1.375290713778409 L 2.784368341619318 1.6316383700284087 Q 2.784368341619318 1.6476184836647725 2.7903608842329546 1.6614346235795452 Q 2.796353426846591 1.675250763494318 2.8068403764204546 1.6857377130681814 Q 2.817327325994318 1.6962246626420452 2.831143465909091 1.7022172052556814 Q 2.8449596058238633 1.708209747869318 2.860939719460227 1.708209747869318 L 2.890902432528409 1.708209747869318 Q 2.9068825461647725 1.708209747869318 2.9206986860795454 1.7022172052556814 Q 2.934514825994318 1.6962246626420452 2.9448353160511362 1.6857377130681814 Q 2.9551558061079546 1.675250763494318 2.961148348721591 1.6614346235795452 Q 2.967140891335227 1.6476184836647725 2.967140891335227 1.6316383700284087 L 2.967140891335227 1.375290713778409 M 3.3591530539772725 1.7421674893465906 L 3.1600674715909087 1.3946000177556814 L 3.156072443181818 1.3739590376420452 L 3.156072443181818 1.7421674893465906 L 3.113125887784091 1.7421674893465906 L 3.113125887784091 1.264761594460227 L 3.1354314630681817 1.264761594460227 L 3.3345170454545454 1.612661985085227 L 3.338844992897727 1.6329700461647725 L 3.338844992897727 1.264761594460227 L 3.381791548295454 1.264761594460227 L 3.381791548295454 1.7421674893465906 L 3.3591530539772725 1.7421674893465906 M 3.7531627308238638 1.7421674893465906 L 3.7395130504261362 1.7421674893465906 L 3.7145441228693183 1.703881800426136 Q 3.6988969282670454 1.7245227805397725 3.6765913529829546 1.7366743252840906 Q 3.6542857776988638 1.7488258700284087 3.626986416903409 1.7488258700284087 L 3.602017489346591 1.7488258700284087 Q 3.5777143998579546 1.7488258700284087 3.556241122159091 1.7396705965909087 Q 3.534767844460227 1.7305153231534087 3.5187877308238638 1.7145352095170452 Q 3.5028076171875 1.6985550958806814 3.49365234375 1.6772482776988633 Q 3.4844970703125 1.6559414595170452 3.4844970703125 1.6316383700284087 L 3.4844970703125 1.375290713778409 Q 3.4844970703125 1.3509876242897725 3.49365234375 1.3296808061079544 Q 3.5028076171875 1.308373987926136 3.5187877308238638 1.2923938742897725 Q 3.534767844460227 1.276413760653409 3.556241122159091 1.267258487215909 Q 3.5777143998579546 1.258103213778409 3.602017489346591 1.258103213778409 L 3.6359752308238638 1.258103213778409 Q 3.6602783203125 1.258103213778409 3.6815851384943183 1.267258487215909 Q 3.7028919566761362 1.276413760653409 3.7188720703125 1.2923938742897725 Q 3.7348521839488638 1.308373987926136 3.7440074573863638 1.3296808061079544 Q 3.7531627308238638 1.3509876242897725 3.7531627308238638 1.375290713778409 L 3.7531627308238638 1.3946000177556814 L 3.7102161754261362 1.4012583984374998 L 3.7102161754261362 1.375290713778409 Q 3.7102161754261362 1.3593106001420452 3.7042236328125 1.3454944602272725 Q 3.6982310901988638 1.3316783203124998 3.6879106001420454 1.3213578302556814 Q 3.677590110085227 1.3110373401988633 3.6637739701704546 1.305044797585227 Q 3.6499578302556817 1.2990522549715906 3.6339777166193183 1.2990522549715906 L 3.6040150035511362 1.2990522549715906 Q 3.5880348899147725 1.2990522549715906 3.57421875 1.305044797585227 Q 3.560402610085227 1.3110373401988633 3.5499156605113638 1.3213578302556814 Q 3.5394287109375 1.3316783203124998 3.5334361683238638 1.3454944602272725 Q 3.527443625710227 1.3593106001420452 3.527443625710227 1.375290713778409 L 3.527443625710227 1.6316383700284087 Q 3.527443625710227 1.6476184836647725 3.5334361683238638 1.6614346235795452 Q 3.5394287109375 1.675250763494318 3.5499156605113638 1.6857377130681814 Q 3.560402610085227 1.6962246626420452 3.57421875 1.7022172052556814 Q 3.5880348899147725 1.708209747869318 3.6040150035511362 1.708209747869318 L 3.6339777166193183 1.708209747869318 Q 3.6499578302556817 1.708209747869318 3.6637739701704546 1.7022172052556814 Q 3.677590110085227 1.6962246626420452 3.6879106001420454 1.6857377130681814 Q 3.6982310901988638 1.675250763494318 3.7042236328125 1.6614346235795452 Q 3.7102161754261362 1.6476184836647725 3.7102161754261362 1.6316383700284087 L 3.7102161754261362 1.532095578835227 L 3.6339777166193183 1.532095578835227 L 3.6339777166193183 1.4911465376420452 L 3.7531627308238638 1.4911465376420452 L 3.7531627308238638 1.7421674893465906 M 3.849209872159091 1.7421674893465906 L 3.849209872159091 1.264761594460227 L 3.892156427556818 1.264761594460227 L 3.892156427556818 1.7012184481534087 L 4.0749289772727275 1.7012184481534087 L 4.0749289772727275 1.7421674893465906 L 3.849209872159091 1.7421674893465906 M 4.250377308238636 1.513785031960227 L 4.250377308238636 1.7421674893465906 L 4.207430752840908 1.7421674893465906 L 4.207430752840908 1.5144508700284087 L 4.083917791193182 1.264761594460227 L 4.1301935369318175 1.264761594460227 L 4.228404651988636 1.4631813387784087 L 4.326615767045454 1.264761594460227 L 4.372891512784091 1.264761594460227 L 4.250377308238636 1.513785031960227 M 4.705644087357953 1.513785031960227 L 4.705644087357953 1.7421674893465906 L 4.662697531960226 1.7421674893465906 L 4.662697531960226 1.5144508700284087 L 4.539184570312499 1.264761594460227 L 4.585460316051135 1.264761594460227 L 4.683671431107953 1.4631813387784087 L 4.781882546164772 1.264761594460227 L 4.828158291903408 1.264761594460227 L 4.705644087357953 1.513785031960227 M 5.158580433238635 1.6316383700284087 Q 5.158580433238635 1.6559414595170452 5.149425159801135 1.6772482776988633 Q 5.140269886363635 1.6985550958806814 5.124289772727272 1.7145352095170452 Q 5.108309659090908 1.7305153231534087 5.08700284090909 1.7396705965909087 Q 5.065696022727272 1.7488258700284087 5.041392933238635 1.7488258700284087 L 5.007435191761362 1.7488258700284087 Q 4.983132102272726 1.7488258700284087 4.961658824573862 1.7396705965909087 Q 4.940185546874999 1.7305153231534087 4.924205433238635 1.7145352095170452 Q 4.908225319602272 1.6985550958806814 4.899070046164772 1.6772482776988633 Q 4.889914772727272 1.6559414595170452 4.889914772727272 1.6316383700284087 L 4.889914772727272 1.375290713778409 Q 4.889914772727272 1.3509876242897725 4.899070046164772 1.3296808061079544 Q 4.908225319602272 1.308373987926136 4.924205433238635 1.2923938742897725 Q 4.940185546874999 1.276413760653409 4.961658824573862 1.267258487215909 Q 4.983132102272726 1.258103213778409 5.007435191761362 1.258103213778409 L 5.041392933238635 1.258103213778409 Q 5.065696022727272 1.258103213778409 5.08700284090909 1.267258487215909 Q 5.108309659090908 1.276413760653409 5.124289772727272 1.2923938742897725 Q 5.140269886363635 1.308373987926136 5.149425159801135 1.3296808061079544 Q 5.158580433238635 1.3509876242897725 5.158580433238635 1.375290713778409 L 5.158580433238635 1.6316383700284087 L 5.158580433238635 1.6316383700284087 M 5.115633877840908 1.375290713778409 Q 5.115633877840908 1.3593106001420452 5.109641335227272 1.3454944602272725 Q 5.103648792613635 1.3316783203124998 5.093328302556817 1.3213578302556814 Q 5.083007812499999 1.3110373401988633 5.069191672585226 1.305044797585227 Q 5.055375532670453 1.2990522549715906 5.03939541903409 1.2990522549715906 L 5.009432705965908 1.2990522549715906 Q 4.993452592329544 1.2990522549715906 4.979636452414772 1.305044797585227 Q 4.965820312499999 1.3110373401988633 4.955333362926135 1.3213578302556814 Q 4.944846413352272 1.3316783203124998 4.938853870738635 1.3454944602272725 Q 4.932861328124999 1.3593106001420452 4.932861328124999 1.375290713778409 L 4.932861328124999 1.6316383700284087 Q 4.932861328124999 1.6476184836647725 4.938853870738635 1.6614346235795452 Q 4.944846413352272 1.675250763494318 4.955333362926135 1.6857377130681814 Q 4.965820312499999 1.6962246626420452 4.979636452414772 1.7022172052556814 Q 4.993452592329544 1.708209747869318 5.009432705965908 1.708209747869318 L 5.03939541903409 1.708209747869318 Q 5.055375532670453 1.708209747869318 5.069191672585226 1.7022172052556814 Q 5.083007812499999 1.6962246626420452 5.093328302556817 1.6857377130681814 Q 5.103648792613635 1.675250763494318 5.109641335227272 1.6614346235795452 Q 5.115633877840908 1.6476184836647725 5.115633877840908 1.6316383700284087 L 5.115633877840908 1.375290713778409 M 5.523293235085226 1.6316383700284087 Q 5.523293235085226 1.6559414595170452 5.514137961647726 1.6772482776988633 Q 5.504982688210226 1.6985550958806814 5.489002574573862 1.7145352095170452 Q 5.473022460937499 1.7305153231534087 5.451715642755681 1.7396705965909087 Q 5.430408824573862 1.7488258700284087 5.406105735085226 1.7488258700284087 L 5.372147993607953 1.7488258700284087 Q 5.347844904119317 1.7488258700284087 5.326371626420453 1.7396705965909087 Q 5.30489834872159 1.7305153231534087 5.288918235085226 1.7145352095170452 Q 5.272938121448862 1.6985550958806814 5.263782848011362 1.6772482776988633 Q 5.254627574573862 1.6559414595170452 5.254627574573862 1.6316383700284087 L 5.254627574573862 1.264761594460227 L 5.29757412997159 1.264761594460227 L 5.29757412997159 1.6316383700284087 Q 5.29757412997159 1.6476184836647725 5.303566672585226 1.6614346235795452 Q 5.309559215198862 1.675250763494318 5.320046164772726 1.6857377130681814 Q 5.33053311434659 1.6962246626420452 5.344349254261362 1.7022172052556814 Q 5.358165394176135 1.708209747869318 5.374145507812499 1.708209747869318 L 5.404108220880681 1.708209747869318 Q 5.420088334517044 1.708209747869318 5.433904474431817 1.7022172052556814 Q 5.44772061434659 1.6962246626420452 5.458041104403408 1.6857377130681814 Q 5.468361594460226 1.675250763494318 5.474354137073862 1.6614346235795452 Q 5.480346679687499 1.6476184836647725 5.480346679687499 1.6316383700284087 L 5.480346679687499 1.264761594460227 L 5.523293235085226 1.264761594460227 L 5.523293235085226 1.6316383700284087 L 5.523293235085226 1.6316383700284087 M 5.850719105113635 1.7421674893465906 L 5.721213600852272 1.5384210404829544 L 5.662286931818181 1.5384210404829544 L 5.662286931818181 1.7421674893465906 L 5.619340376420453 1.7421674893465906 L 5.619340376420453 1.264761594460227 L 5.770818536931817 1.264761594460227 Q 5.795121626420453 1.264761594460227 5.816428444602272 1.273916867897727 Q 5.83773526278409 1.283072141335227 5.853715376420453 1.2990522549715906 Q 5.869695490056817 1.3150323686079544 5.878850763494317 1.336505646306818 Q 5.888006036931817 1.3579789240056814 5.888006036931817 1.382282013494318 L 5.888006036931817 1.4209006214488633 Q 5.888006036931817 1.4452037109374998 5.878850763494317 1.4666769886363633 Q 5.869695490056817 1.488150266335227 5.853715376420453 1.5041303799715906 Q 5.83773526278409 1.5201104936079544 5.816428444602272 1.5292657670454544 Q 5.795121626420453 1.5384210404829544 5.770818536931817 1.5384210404829544 L 5.900324041193181 1.7421674893465906 L 5.850719105113635 1.7421674893465906 M 5.84505948153409 1.382282013494318 Q 5.84505948153409 1.3663018998579544 5.839066938920453 1.3524857599431814 Q 5.833074396306817 1.338669620028409 5.822753906249998 1.3281826704545452 Q 5.812433416193181 1.3176957208806814 5.798617276278407 1.3117031782670452 Q 5.784801136363635 1.305710635653409 5.768821022727272 1.305710635653409 L 5.662286931818181 1.305710635653409 L 5.662286931818181 1.4974719992897725 L 5.768821022727272 1.4974719992897725 Q 5.784801136363635 1.4974719992897725 5.798617276278407 1.491479456676136 Q 5.812433416193181 1.4854869140624998 5.822753906249998 1.474999964488636 Q 5.833074396306817 1.4645130149147725 5.839066938920453 1.4506968749999998 Q 5.84505948153409 1.436880735085227 5.84505948153409 1.4209006214488633 L 5.84505948153409 1.382282013494318 M 6.182972301136362 1.305710635653409 L 6.182972301136362 1.4831564808238633 L 6.365744850852272 1.4831564808238633 L 6.365744850852272 1.5241055220170452 L 6.182972301136362 1.5241055220170452 L 6.182972301136362 1.7421674893465906 L 6.140025745738635 1.7421674893465906 L 6.140025745738635 1.264761594460227 L 6.408691406249998 1.264761594460227 L 6.408691406249998 1.305710635653409 L 6.182972301136362 1.305710635653409 M 6.739113547585226 1.6316383700284087 Q 6.739113547585226 1.6559414595170452 6.729958274147726 1.6772482776988633 Q 6.720803000710226 1.6985550958806814 6.704822887073862 1.7145352095170452 Q 6.688842773437499 1.7305153231534087 6.667535955255681 1.7396705965909087 Q 6.646229137073862 1.7488258700284087 6.621926047585226 1.7488258700284087 L 6.587968306107953 1.7488258700284087 Q 6.563665216619317 1.7488258700284087 6.542191938920453 1.7396705965909087 Q 6.52071866122159 1.7305153231534087 6.504738547585226 1.7145352095170452 Q 6.488758433948862 1.6985550958806814 6.479603160511362 1.6772482776988633 Q 6.470447887073862 1.6559414595170452 6.470447887073862 1.6316383700284087 L 6.470447887073862 1.264761594460227 L 6.51339444247159 1.264761594460227 L 6.51339444247159 1.6316383700284087 Q 6.51339444247159 1.6476184836647725 6.519386985085226 1.6614346235795452 Q 6.525379527698862 1.675250763494318 6.535866477272726 1.6857377130681814 Q 6.54635342684659 1.6962246626420452 6.560169566761362 1.7022172052556814 Q 6.573985706676135 1.708209747869318 6.589965820312499 1.708209747869318 L 6.619928533380681 1.708209747869318 Q 6.635908647017044 1.708209747869318 6.649724786931817 1.7022172052556814 Q 6.66354092684659 1.6962246626420452 6.673861416903408 1.6857377130681814 Q 6.684181906960226 1.675250763494318 6.690174449573862 1.6614346235795452 Q 6.696166992187499 1.6476184836647725 6.696166992187499 1.6316383700284087 L 6.696166992187499 1.264761594460227 L 6.739113547585226 1.264761594460227 L 6.739113547585226 1.6316383700284087 L 6.739113547585226 1.6316383700284087 M 6.958007812499999 1.305710635653409 L 6.958007812499999 1.7421674893465906 L 6.915061257102272 1.7421674893465906 L 6.915061257102272 1.305710635653409 L 6.801202947443181 1.305710635653409 L 6.801202947443181 1.264761594460227 L 7.07186612215909 1.264761594460227 L 7.07186612215909 1.305710635653409 L 6.958007812499999 1.305710635653409 M 7.402288263494317 1.6316383700284087 Q 7.402288263494317 1.6559414595170452 7.393132990056817 1.6772482776988633 Q 7.383977716619317 1.6985550958806814 7.367997602982953 1.7145352095170452 Q 7.35201748934659 1.7305153231534087 7.330710671164772 1.7396705965909087 Q 7.309403852982953 1.7488258700284087 7.285100763494317 1.7488258700284087 L 7.251143022017044 1.7488258700284087 Q 7.226839932528407 1.7488258700284087 7.205366654829544 1.7396705965909087 Q 7.183893377130681 1.7305153231534087 7.167913263494317 1.7145352095170452 Q 7.151933149857953 1.6985550958806814 7.142777876420453 1.6772482776988633 Q 7.133622602982953 1.6559414595170452 7.133622602982953 1.6316383700284087 L 7.133622602982953 1.264761594460227 L 7.176569158380681 1.264761594460227 L 7.176569158380681 1.6316383700284087 Q 7.176569158380681 1.6476184836647725 7.182561700994317 1.6614346235795452 Q 7.188554243607953 1.675250763494318 7.199041193181817 1.6857377130681814 Q 7.209528142755681 1.6962246626420452 7.223344282670453 1.7022172052556814 Q 7.237160422585226 1.708209747869318 7.25314053622159 1.708209747869318 L 7.283103249289772 1.708209747869318 Q 7.299083362926135 1.708209747869318 7.312899502840907 1.7022172052556814 Q 7.326715642755681 1.6962246626420452 7.337036132812498 1.6857377130681814 Q 7.347356622869317 1.675250763494318 7.353349165482953 1.6614346235795452 Q 7.35934170809659 1.6476184836647725 7.35934170809659 1.6316383700284087 L 7.35934170809659 1.264761594460227 L 7.402288263494317 1.264761594460227 L 7.402288263494317 1.6316383700284087 L 7.402288263494317 1.6316383700284087 M 7.729714133522726 1.7421674893465906 L 7.600208629261362 1.5384210404829544 L 7.541281960227272 1.5384210404829544 L 7.541281960227272 1.7421674893465906 L 7.498335404829544 1.7421674893465906 L 7.498335404829544 1.264761594460227 L 7.649813565340907 1.264761594460227 Q 7.674116654829544 1.264761594460227 7.695423473011362 1.273916867897727 Q 7.716730291193181 1.283072141335227 7.732710404829544 1.2990522549715906 Q 7.748690518465907 1.3150323686079544 7.757845791903407 1.336505646306818 Q 7.767001065340907 1.3579789240056814 7.767001065340907 1.382282013494318 L 7.767001065340907 1.4209006214488633 Q 7.767001065340907 1.4452037109374998 7.757845791903407 1.4666769886363633 Q 7.748690518465907 1.488150266335227 7.732710404829544 1.5041303799715906 Q 7.716730291193181 1.5201104936079544 7.695423473011362 1.5292657670454544 Q 7.674116654829544 1.5384210404829544 7.649813565340907 1.5384210404829544 L 7.779319069602272 1.7421674893465906 L 7.729714133522726 1.7421674893465906 M 7.724054509943181 1.382282013494318 Q 7.724054509943181 1.3663018998579544 7.718061967329544 1.3524857599431814 Q 7.712069424715907 1.338669620028409 7.70174893465909 1.3281826704545452 Q 7.691428444602272 1.3176957208806814 7.677612304687498 1.3117031782670452 Q 7.663796164772726 1.305710635653409 7.647816051136362 1.305710635653409 L 7.541281960227272 1.305710635653409 L 7.541281960227272 1.4974719992897725 L 7.647816051136362 1.4974719992897725 Q 7.663796164772726 1.4974719992897725 7.677612304687498 1.491479456676136 Q 7.691428444602272 1.4854869140624998 7.70174893465909 1.474999964488636 Q 7.712069424715907 1.4645130149147725 7.718061967329544 1.4506968749999998 Q 7.724054509943181 1.436880735085227 7.724054509943181 1.4209006214488633 L 7.724054509943181 1.382282013494318 M 7.861716530539772 1.7421674893465906 L 7.861716530539772 1.264761594460227 L 8.130382191051135 1.264761594460227 L 8.130382191051135 1.305710635653409 L 7.904663085937499 1.305710635653409 L 7.904663085937499 1.4831564808238633 L 8.087435635653408 1.4831564808238633 L 8.087435635653408 1.5241055220170452 L 7.904663085937499 1.5241055220170452 L 7.904663085937499 1.7012184481534087 L 8.130382191051135 1.7012184481534087 L 8.130382191051135 1.7421674893465906 L 7.861716530539772 1.7421674893465906" fill="#4e888f" fill-rule="nonzero"></path></g><g clip-path="url(#SvgjsClipPath1001)"><path d=" M -4.054401355642165 -0.9561169331477872 L -0.3999999999999999 -0.9561169331477872 L -0.3999999999999999 2.698284422494378 L -4.054401355642165 2.698284422494378 Z" fill="#4e888f" transform="matrix(1,0,0,1,0,0)" fill-rule="nonzero" mask="url(#maskedMgText-9f683297-2197-4983-90a3-b77529ff1605)"></path></g></g><defs><clipPath id="SvgjsClipPath1001"><path d=" M -4.054401355642165 -0.9561169331477872 h 3.654401355642165 v 3.654401355642165 h -3.654401355642165 Z"></path></clipPath><mask id="maskedMgText-9f683297-2197-4983-90a3-b77529ff1605"><path d=" M -4.054401355642165 -0.9561169331477872 L -0.3999999999999999 -0.9561169331477872 L -0.3999999999999999 2.698284422494378 L -4.054401355642165 2.698284422494378 Z" fill="#ffffff" transform="matrix(1,0,0,1,0,0)" fill-rule="nonzero"></path><path d=" M -2.7052773463936135 0.42159284292502797 C -2.5385170683438796 0.42159284292502797 -2.4145049833982655 0.4594736675073915 -2.3332410915567707 0.5352353166721182 C -2.251977199715276 0.6109969658368449 -2.2113452537945286 0.7195604463438418 -2.2113452537945286 0.8609257581931085 C -2.2113452537945286 0.9531941353881389 -2.231237977318228 1.0338231530746218 -2.271023424365626 1.1028128112525575 C -2.310808871413025 1.171802469430493 -2.3685824195190874 1.225343523169811 -2.4443440686838143 1.2634359724705118 C -2.520105717848541 1.3015284217712124 -2.610892722015211 1.3205746464215626 -2.7167050811838234 1.3205746464215626 C -2.737021054144197 1.3205746464215626 -2.7660136405563973 1.319939772266551 -2.8036828404204233 1.3186700239565277 C -2.8413520402844497 1.3174002756465042 -2.8741538716267194 1.3167654014914927 -2.9020883344472335 1.3167654014914927 C -2.939334284874585 1.3167654014914927 -2.975945361146925 1.3169770262098297 -3.0119215632642535 1.3174002756465042 C -3.047897765381582 1.3178235250831787 -3.0764671023571073 1.318881648674865 -3.09762957419083 1.3205746464215626 L -3.09762957419083 1.2951796802210955 C -3.070541610243665 1.2934866824743978 -3.050225637283291 1.290100686981002 -3.036681655309709 1.2850216937409087 C -3.023137673336126 1.2799427005008153 -3.0140378104476255 1.2697847140206284 -3.0093820666442066 1.2545477343003482 C -3.0047263228407877 1.239310754580068 -3.0023984509390784 1.2164552849996477 -3.0023984509390784 1.1859813255590872 L -3.0023984509390784 0.5561861637875035 C -3.0023984509390784 0.5248657054735941 -3.0047263228407877 0.5017986111748365 -3.0093820666442066 0.4869848808912307 C -3.0140378104476255 0.47217115060762493 -3.0233492980544634 0.4620131641274382 -3.0373165294647206 0.4565109214506702 C -3.0512837608749774 0.45100867877390227 -3.071388109117014 0.44783430799884394 -3.09762957419083 0.4469878091254951 L -3.09762957419083 0.42159284292502797 C -3.0764671023571073 0.42243934179837683 -3.047897765381582 0.42349746539006305 -3.0119215632642535 0.4247672137000864 C -2.975945361146925 0.42603696201010977 -2.940180783747934 0.4262485867284469 -2.90462783106728 0.42540208785509803 C -2.8741538716267194 0.42455558898174917 -2.8396590425377517 0.4237090901084002 -2.8011433438003768 0.4228625912350513 C -2.7626276450630014 0.42201609236170246 -2.7306723125940806 0.42159284292502797 -2.7052773463936135 0.42159284292502797 M -2.7065470947036365 0.44444831250544836 C -2.7454860428776864 0.44444831250544836 -2.7708810090781535 0.451643552928914 -2.782731993305038 0.4660340337758454 C -2.7945829775319226 0.4804245146227768 -2.800508469645365 0.509628725753314 -2.800508469645365 0.5536466671674568 L -2.800508469645365 1.188520822179134 C -2.800508469645365 1.2325387635932767 -2.7943713528135854 1.2617429747238138 -2.782097119150026 1.2761334555707453 C -2.7698228854864673 1.2905239364176766 -2.744216294567663 1.2977191768411422 -2.7052773463936135 1.2977191768411422 C -2.6341714410323056 1.2977191768411422 -2.5780908906729407 1.2810008240925015 -2.537035695315519 1.2475641185952198 C -2.4959804999580975 1.214127413097938 -2.4665646641092227 1.165242103162039 -2.448788187768896 1.1009081887875225 C -2.431011711428569 1.0365742744130058 -2.4221234732584054 0.9582731286282323 -2.4221234732584054 0.8660047514332019 C -2.4221234732584054 0.7237929407105863 -2.444132443965477 0.6179805815419733 -2.48815038537962 0.5485676739273634 C -2.5321683267937627 0.47915476631275344 -2.6049672299017685 0.44444831250544836 -2.7065470947036365 0.44444831250544836" fill="NA" transform="matrix(1,0,0,1,0,0)" fill-rule="nonzero"></path><path d=" M -2.123696040739689 0.42159284292502797 C -2.1025335689059665 0.42243934179837683 -2.073964231930441 0.4232858406717258 -2.037988029813113 0.4241323395450747 C -2.0020118276957843 0.42497883841842354 -1.9662472502967931 0.42540208785509803 -1.9306942976161392 0.42540208785509803 C -1.8900623516953918 0.42540208785509803 -1.850700154084668 0.42497883841842354 -1.8126077047839673 0.4241323395450747 C -1.7745152554832666 0.4232858406717258 -1.7474272915361018 0.4228625912350513 -1.7313438129424727 0.4228625912350513 C -1.6263779526472086 0.4228625912350513 -1.5478651821440979 0.44148556644872716 -1.4958055014331406 0.47873151687607896 C -1.443745820722183 0.5159774673034307 -1.417715980366704 0.5638046536476436 -1.417715980366704 0.6222130759087179 C -1.417715980366704 0.6518405364759295 -1.4266042185368677 0.6818912464798156 -1.4443806948771947 0.7123652059203761 C -1.4621571712175216 0.7428391653609365 -1.489668384601361 0.7699271293081015 -1.5269143350287127 0.7936290977618707 C -1.5641602854560643 0.81733106621564 -1.6124107212369518 0.8346842931192925 -1.671665642371375 0.8456887784728282 L -1.671665642371375 0.8482282750928749 C -1.5920947482765782 0.8541537672063173 -1.5290305822120849 0.8685442480532486 -1.482473144177895 0.891399717633669 C -1.4359157061437058 0.9142551872140894 -1.4024790006464238 0.9417664005979287 -1.3821630276860501 0.973933357785187 C -1.3618470547256765 1.0061003149724452 -1.3516890682454898 1.039537020469727 -1.3516890682454898 1.074243474277032 C -1.3516890682454898 1.1538143683718287 -1.3827979018410619 1.2147622872529498 -1.4450155690322064 1.2570872309203949 C -1.5072332362233507 1.29941217458784 -1.592941247149927 1.3205746464215626 -1.7021396018119355 1.3205746464215626 C -1.7224555747723092 1.3205746464215626 -1.7518714106211837 1.319939772266551 -1.7903871093585586 1.3186700239565277 C -1.8289028080959335 1.3174002756465042 -1.8748253719751116 1.3167654014914927 -1.9281548009960925 1.3167654014914927 C -1.9654007514234442 1.3167654014914927 -2.0020118276957843 1.3169770262098297 -2.037988029813113 1.3174002756465042 C -2.073964231930441 1.3178235250831787 -2.1025335689059665 1.318881648674865 -2.123696040739689 1.3205746464215626 L -2.123696040739689 1.2951796802210955 C -2.096608076792524 1.2934866824743978 -2.0762921038321505 1.290100686981002 -2.062748121858568 1.2850216937409087 C -2.0492041398849854 1.2799427005008153 -2.0401042769964848 1.2697847140206284 -2.035448533193066 1.2545477343003482 C -2.030792789389647 1.239310754580068 -2.0284649174879377 1.2164552849996477 -2.0284649174879377 1.1859813255590872 L -2.0284649174879377 0.5561861637875035 C -2.0284649174879377 0.5248657054735941 -2.030792789389647 0.5017986111748365 -2.035448533193066 0.4869848808912307 C -2.0401042769964848 0.47217115060762493 -2.0494157646033226 0.4620131641274382 -2.06338299601358 0.4565109214506702 C -2.0773502274238367 0.45100867877390227 -2.097454575665873 0.44783430799884394 -2.123696040739689 0.4469878091254951 L -2.123696040739689 0.42159284292502797 M -1.7478505409727763 0.4469878091254951 C -1.7808639970333835 0.4469878091254951 -1.8022380935854432 0.4541830495489607 -1.8119728306289558 0.4685735303958921 C -1.821707567672468 0.4829640112428235 -1.8265749361942243 0.5121682223733607 -1.8265749361942243 0.5561861637875035 L -1.8265749361942243 1.1859813255590872 C -1.8265749361942243 1.22999926697323 -1.8210726935174564 1.2585686039487556 -1.8100682081639206 1.2716893364856634 C -1.7990637228103847 1.2848100690225714 -1.7753617543566156 1.2913704352910256 -1.7389623028026127 1.2913704352910256 C -1.6780143839214918 1.2913704352910256 -1.633361568352337 1.272112585922338 -1.605003856095149 1.233596887184963 C -1.5766461438379606 1.1950811884475878 -1.5624672877093666 1.1402703863982464 -1.5624672877093666 1.0691644810369385 C -1.5624672877093666 1.003984067789073 -1.5787623910213329 0.9536173848248133 -1.6113525976452658 0.9180644321441593 C -1.6439428042691984 0.8825114794635055 -1.697907107445191 0.8647350031231785 -1.7732455071732434 0.8647350031231785 L -1.8811741135252285 0.8647350031231785 C -1.8811741135252285 0.8647350031231785 -1.8811741135252285 0.8611373829114457 -1.8811741135252285 0.8539421424879801 C -1.8811741135252285 0.8467469020645144 -1.8811741135252285 0.8431492818527815 -1.8811741135252285 0.8431492818527815 L -1.77197575886322 0.8431492818527815 C -1.7321903118158215 0.8431492818527815 -1.7017163523752612 0.8336261695276064 -1.6805538805415385 0.814579944877256 C -1.6593914087078159 0.7955337202269057 -1.64457767842421 0.7701387540264387 -1.6361126896907212 0.7383950462758548 C -1.6276477009572319 0.706651338525271 -1.6234152065904874 0.6725797588729777 -1.6234152065904874 0.6361803073189748 C -1.6234152065904874 0.573539390691156 -1.6331499436339998 0.5263470785019547 -1.6526194177210247 0.49460337075137084 C -1.6720888918080494 0.46285966300078696 -1.7038325995586332 0.4469878091254951 -1.7478505409727763 0.4469878091254951" fill="NA" transform="matrix(1,0,0,1,0,0)" fill-rule="nonzero"></path></mask></defs></svg>