
        <svg xmlns="http://www.w3.org/2000/svg" xmlns:xlink="http://www.w3.org/1999/xlink" version="1.1" width="3186.1665336806263" height="3136.906092518549" viewBox="0 0 3186.1665336806263 3136.906092518549">
			
			<g transform="scale(9.308326684031304) translate(10, 10)">
				<defs id="SvgjsDefs2165"><linearGradient id="SvgjsLinearGradient2176"><stop id="SvgjsStop2177" stop-color="#2d388a" offset="0"/><stop id="SvgjsStop2178" stop-color="#00aeef" offset="1"/></linearGradient></defs><g id="SvgjsG2166" featureKey="rootContainer" transform="matrix(1,0,0,1,0,0)" fill="#fff"><path xmlns="http://www.w3.org/2000/svg" fill-rule="evenodd" d="M5,65 L161,0 L317, 65 L161, 10 z M5,237 L161,317 L317,232 L161, 307 z"/></g><g id="SvgjsG2167" featureKey="symbolFeature-0" transform="matrix(0.9425375695125465,0,0,0.9425375695125465,129,90)" fill="#fff"><path xmlns="http://www.w3.org/2000/svg" fill-rule="evenodd" d="M237.914003,469.416492 C237.202036,470.438244 235.739459,470.567886 234.85887,469.687297 L216.585786,451.414214 C215.804738,450.633165 215.804738,449.366835 216.585786,448.585786 L234.85887,430.312703 C235.739459,429.432114 237.202036,429.561756 237.914003,430.583508 C241.853914,436.237725 244,442.960717 244,450 C244,457.039283 241.853914,463.762275 237.914003,469.416492 Z M182.085997,430.583508 C182.797964,429.561756 184.260541,429.432114 185.14113,430.312703 L203.414214,448.585786 C204.195262,449.366835 204.195262,450.633165 203.414214,451.414214 L185.14113,469.687297 C184.260541,470.567886 182.797964,470.438244 182.085997,469.416492 C178.146086,463.762275 176,457.039283 176,450 C176,442.960717 178.146086,436.237725 182.085997,430.583508 Z M229.416492,477.914003 C223.762275,481.853914 217.039283,484 210,484 C202.960717,484 196.237725,481.853914 190.583508,477.914003 C189.561756,477.202036 189.432114,475.739459 190.312703,474.85887 L208.585786,456.585786 C209.366835,455.804738 210.633165,455.804738 211.414214,456.585786 L229.687297,474.85887 C230.567886,475.739459 230.438244,477.202036 229.416492,477.914003 Z M190.583508,422.085997 C196.237725,418.146086 202.960717,416 210,416 C217.039283,416 223.762275,418.146086 229.416492,422.085997 C230.438244,422.797964 230.567886,424.260541 229.687297,425.14113 L211.414214,443.414214 C210.633165,444.195262 209.366835,444.195262 208.585786,443.414214 L190.312703,425.14113 C189.432114,424.260541 189.561756,422.797964 190.583508,422.085997 Z" transform="translate(-176 -416)"/></g><g id="SvgjsG2168" featureKey="sloganFeature-0" transform="matrix(0.4790713260714621,0,0,0.4790713260714621,89.42511427165084,217.24054905217764)" fill="#fff"><path d="M1.78 19.42 l6.94 0 l0 0.58 l-7.52 0 l0 -14 l0.58 0 l0 13.42 z M8.08 6 l0 3.5 l-0.58 0 l0 -3.5 l0.58 0 z M8.84 19.42 l7.28 0 l0 0.58 l-7.68 0 l-0.18 0 l0 -14 l0.58 0 l7.1 0 l0 0.58 l-7.1 0 l0 6.1 l5.66 0 l0 0.58 l-5.66 0 l0 6.16 z M26.82 20 l-0.72 0 l-4.88 -6.78 l-4.9 6.78 l-0.72 0 l5.26 -7.28 l-4.86 -6.72 l0.72 0 l4.5 6.24 l4.5 -6.24 l0.72 0 l-4.86 6.72 z M31.060000000000002 6 c3.14 0 4.8 1.94 4.8 4.3 c0 2.42 -1.66 4.34 -4.8 4.34 l-3.68 0 l0 5.36 l-0.58 0 l0 -14 l4.26 0 z M31.14 14.04 c2.52 0 4.14 -1.46 4.14 -3.74 c0 -2.32 -1.62 -3.72 -4.14 -3.72 l-3.76 0 l0 7.46 l3.76 0 z M36.620000000000005 19.42 l7.28 0 l0 0.58 l-7.68 0 l-0.18 0 l0 -14 l0.58 0 l7.1 0 l0 0.58 l-7.1 0 l0 6.1 l5.66 0 l0 0.58 l-5.66 0 l0 6.16 z M53.940000000000005 20 l-0.72 0 l-4.08 -5.38 c-0.2 0.02 -0.4 0.02 -0.6 0.02 l-3.68 0 l0 5.36 l-0.58 0 l0 -14 l4.26 0 c3.14 0 4.8 1.94 4.8 4.3 c0 2.08 -1.22 3.8 -3.56 4.24 z M44.86000000000001 14.04 l3.76 0 c2.52 0 4.14 -1.46 4.14 -3.74 c0 -2.32 -1.62 -3.72 -4.14 -3.72 l-3.76 0 l0 7.46 z M61.66000000000001 6 l0 0.58 l-4.22 0 l0 13.42 l-0.58 0 l0 -13.42 l-4.24 0 l0 -0.58 l9.04 0 z M62.52000000000001 6 l0 14 l-0.58 0 l0 -14 l0.58 0 z M67.24000000000001 5.76 c1.96 0 3.58 1.34 4.08 2.98 l-0.48 0.18 c-0.56 -1.48 -1.82 -2.6 -3.6 -2.6 c-2 0 -3.36 1.16 -3.36 2.74 c0 1.42 0.96 2.4 2.84 3.14 l1.06 0.4 c2.02 0.82 3.9 1.64 3.9 4.12 c0 2.04 -1.98 3.58 -4.34 3.58 c-2.24 0 -4.2 -1.38 -4.64 -3.42 l0.56 -0.18 c0.48 1.88 2.1 3.04 4.08 3.04 s3.76 -1.26 3.76 -3.04 c0 -2.1 -1.58 -2.84 -3.34 -3.52 l-1.2 -0.48 c-2.18 -0.86 -3.26 -2.02 -3.26 -3.62 c0 -1.86 1.54 -3.32 3.94 -3.32 z M72.44000000000001 19.42 l7.28 0 l0 0.58 l-7.68 0 l-0.18 0 l0 -14 l0.58 0 l7.1 0 l0 0.58 l-7.1 0 l0 6.1 l5.66 0 l0 0.58 l-5.66 0 l0 6.16 z M95.80000000000001 20 l-1.78 -3.98 l-8.04 0 l-1.78 3.98 l-0.62 0 l6.26 -14 l0.3 0 l6.28 14 l-0.62 0 z M86.22000000000001 15.46 l7.56 0 l-3.78 -8.46 z M105.30000000000001 6 l0.58 0 l0 8.92 c0 3.48 -2.04 5.38 -4.8 5.38 c-2.74 0 -4.78 -1.9 -4.78 -5.38 l0 -8.92 l0.58 0 l0 8.9 c0 3.1 1.74 4.8 4.2 4.8 c2.48 0 4.22 -1.7 4.22 -4.8 l0 -8.9 z M114.88000000000001 5.76 c1.96 0 3.58 1.34 4.08 2.98 l-0.48 0.18 c-0.56 -1.48 -1.82 -2.6 -3.6 -2.6 c-2 0 -3.36 1.16 -3.36 2.74 c0 1.42 0.96 2.4 2.84 3.14 l1.06 0.4 c2.02 0.82 3.9 1.64 3.9 4.12 c0 2.04 -1.98 3.58 -4.34 3.58 c-2.24 0 -4.2 -1.38 -4.64 -3.42 l0.56 -0.18 c0.48 1.88 2.1 3.04 4.08 3.04 s3.76 -1.26 3.76 -3.04 c0 -2.1 -1.58 -2.84 -3.34 -3.52 l-1.2 -0.48 c-2.18 -0.86 -3.26 -2.02 -3.26 -3.62 c0 -1.86 1.54 -3.32 3.94 -3.32 z M120.08000000000001 19.42 l7.28 0 l0 0.58 l-7.68 0 l-0.18 0 l0 -14 l0.58 0 l7.1 0 l0 0.58 l-7.1 0 l0 6.1 l5.66 0 l0 0.58 l-5.66 0 l0 6.16 z M137.4 20 l-0.72 0 l-4.08 -5.38 c-0.2 0.02 -0.4 0.02 -0.6 0.02 l-3.68 0 l0 5.36 l-0.58 0 l0 -14 l4.26 0 c3.14 0 4.8 1.94 4.8 4.3 c0 2.08 -1.22 3.8 -3.56 4.24 z M128.32 14.04 l3.76 0 c2.52 0 4.14 -1.46 4.14 -3.74 c0 -2.32 -1.62 -3.72 -4.14 -3.72 l-3.76 0 l0 7.46 z M148.36 6 l0.62 0 l-6.28 14 l-0.3 0 l-6.26 -14 l0.62 0 l5.8 13 z M149.44 6 l0 14 l-0.58 0 l0 -14 l0.58 0 z M161.5 18.5 c-1.3 1.08 -2.9 1.7 -4.62 1.7 c-3.44 0 -7.06 -2.98 -7.06 -7.2 s3.62 -7.2 7.06 -7.2 c1.7 0 3.28 0.6 4.58 1.66 l-0.4 0.46 c-1.18 -1 -2.64 -1.52 -4.12 -1.52 c-3.16 0 -6.54 2.68 -6.54 6.6 s3.38 6.6 6.54 6.6 c1.48 0 2.96 -0.52 4.12 -1.5 z M162.26 19.42 l7.28 0 l0 0.58 l-7.68 0 l-0.18 0 l0 -14 l0.58 0 l7.1 0 l0 0.58 l-7.1 0 l0 6.1 l5.66 0 l0 0.58 l-5.66 0 l0 6.16 z M177.64 6 c4.18 0 7.06 3.08 7.06 7.06 c0 3.86 -2.88 6.94 -7.06 6.94 l-3.44 0 l0 -14 l3.44 0 z M177.62 19.44 c3.9 0 6.5 -2.82 6.5 -6.38 c0 -3.68 -2.6 -6.5 -6.5 -6.5 l-2.84 0 l0 12.88 l2.84 0 z M185.56 19.42 l7.28 0 l0 0.58 l-7.68 0 l-0.18 0 l0 -14 l0.58 0 l7.1 0 l0 0.58 l-7.1 0 l0 6.1 l5.66 0 l0 0.58 l-5.66 0 l0 6.16 z M198.08 19.42 l6.94 0 l0 0.58 l-7.52 0 l0 -14 l0.58 0 l0 13.42 z M204.38000000000002 6 l0 3.5 l-0.58 0 l0 -3.5 l0.58 0 z M205.14000000000001 6 l0 14 l-0.58 0 l0 -14 l0.58 0 z M216.08 6 l0.58 0 l0 14 l-0.44 0 l-9.82 -12.9 l0 12.9 l-0.58 0 l0 -14 l0.44 0 l9.82 12.94 l0 -12.94 z M227.60000000000002 6 l0.58 0 l0 14 l-0.44 0 l-9.82 -12.9 l0 12.9 l-0.58 0 l0 -14 l0.44 0 l9.82 12.94 l0 -12.94 z M235.62000000000003 5.800000000000001 c3.44 0 7.08 2.98 7.08 7.2 s-3.64 7.2 -7.08 7.2 s-7.06 -2.98 -7.06 -7.2 s3.62 -7.2 7.06 -7.2 z M235.62000000000003 19.6 c3.1 0 6.5 -2.68 6.5 -6.6 s-3.4 -6.6 -6.5 -6.6 c-3.08 0 -6.48 2.68 -6.48 6.6 s3.4 6.6 6.48 6.6 z M253.56000000000003 6 l0.62 0 l-6.28 14 l-0.3 0 l-6.26 -14 l0.62 0 l5.8 13 z M262.76 20 l-1.78 -3.98 l-8.04 0 l-1.78 3.98 l-0.62 0 l6.26 -14 l0.3 0 l6.28 14 l-0.62 0 z M253.18 15.46 l7.56 0 l-3.78 -8.46 z M271.9 6 l0 0.58 l-4.22 0 l0 13.42 l-0.58 0 l0 -13.42 l-4.24 0 l0 -0.58 l9.04 0 z M272.76 6 l0 14 l-0.58 0 l0 -14 l0.58 0 z M280.2 5.800000000000001 c3.44 0 7.08 2.98 7.08 7.2 s-3.64 7.2 -7.08 7.2 s-7.06 -2.98 -7.06 -7.2 s3.62 -7.2 7.06 -7.2 z M280.2 19.6 c3.1 0 6.5 -2.68 6.5 -6.6 s-3.4 -6.6 -6.5 -6.6 c-3.08 0 -6.48 2.68 -6.48 6.6 s3.4 6.6 6.48 6.6 z M297.92 6 l0.58 0 l0 14 l-0.44 0 l-9.82 -12.9 l0 12.9 l-0.58 0 l0 -14 l0.44 0 l9.82 12.94 l0 -12.94 z"/></g><g id="SvgjsG2169" featureKey="nameLeftFeature-0" transform="matrix(2.472706488427622,0,0,2.472706488427622,-2.96724790402098,159.65830189548848)" fill="#fff"><path d="M1.78 6 l0 14 l-0.58 0 l0 -14 l0.58 0 z M14.440000000000001 6 l0.58 0 l0 14 l-0.44 0 l-9.82 -12.9 l0 12.9 l-0.58 0 l0 -14 l0.44 0 l9.82 12.94 l0 -12.94 z M27.68 6 l0.58 0 l0 14 l-0.44 0 l-9.82 -12.9 l0 12.9 l-0.58 0 l0 -14 l0.44 0 l9.82 12.94 l0 -12.94 z M37.42 5.800000000000001 c3.44 0 7.08 2.98 7.08 7.2 s-3.64 7.2 -7.08 7.2 s-7.06 -2.98 -7.06 -7.2 s3.62 -7.2 7.06 -7.2 z M37.42 19.6 c3.1 0 6.5 -2.68 6.5 -6.6 s-3.4 -6.6 -6.5 -6.6 c-3.08 0 -6.48 2.68 -6.48 6.6 s3.4 6.6 6.48 6.6 z M57.08 6 l0.62 0 l-6.28 14 l-0.3 0 l-6.26 -14 l0.62 0 l5.8 13 z"/></g><g id="SvgjsG2170" featureKey="nameRightFeature-0" transform="matrix(2.4488977033162964,0,0,2.4488977033162964,144.79599183347025,159.89435333929163)" fill="#fff"><path d="M7.1 13.32 l0 2.4 l-6.2 0 l0 -2.4 l6.2 0 z M18.060000000000002 8.66 l-5.86 0 l0 3.06 l4.82 0 l0 2.5 l-4.82 0 l0 5.78 l-3 0 l0 -14 l8.86 0 l0 2.66 z M26.52 5.800000000000001 c3.9 0 7.26 2.94 7.26 7.2 s-3.36 7.2 -7.26 7.2 s-7.26 -2.94 -7.26 -7.2 s3.36 -7.2 7.26 -7.2 z M26.52 17.46 c2.36 0 4.22 -1.86 4.22 -4.46 s-1.86 -4.46 -4.22 -4.46 s-4.22 1.86 -4.22 4.46 s1.86 4.46 4.22 4.46 z M47.64 18.5 c-1.24 1.12 -2.9 1.7 -4.76 1.7 c-3.92 0 -7.3 -2.94 -7.3 -7.2 s3.38 -7.2 7.3 -7.2 c1.84 0 3.48 0.6 4.68 1.66 l-1.76 1.98 c-0.74 -0.52 -1.74 -0.9 -2.76 -0.9 c-2.52 0 -4.42 1.86 -4.42 4.46 s1.9 4.46 4.42 4.46 c1.06 0 2.1 -0.4 2.86 -1 z M57.440000000000005 6 l2.92 0 l0 8.92 c0 3.4 -2.46 5.38 -5.4 5.38 s-5.42 -1.98 -5.42 -5.38 l0 -8.92 l2.92 0 l0 8.94 c0 2.04 1.34 2.62 2.5 2.62 c1.14 0 2.48 -0.58 2.48 -2.62 l0 -8.94 z M67.34 5.76 c2.46 0 4.02 1.54 4.76 2.9 l-2.16 1.28 c-0.76 -1.06 -1.5 -1.6 -2.6 -1.6 c-0.98 0 -1.7 0.58 -1.7 1.38 s0.46 1.22 1.56 1.62 l0.96 0.34 c3.1 1.1 4.32 2.48 4.32 4.4 c0 2.82 -2.68 4.22 -5.06 4.22 c-2.52 0 -4.48 -1.5 -5.16 -3.46 l2.24 -1.18 c0.5 1.02 1.34 2 2.92 2 c1.14 0 2.02 -0.5 2.02 -1.54 c0 -1 -0.6 -1.44 -2.12 -2.02 l-0.86 -0.3 c-2.06 -0.74 -3.72 -1.76 -3.72 -4.2 c0 -2.24 2.1 -3.84 4.6 -3.84 z"/></g>
			</g>
		</svg>
	